<svg id="Layer_1" data-name="Layer 1" xmlns="http://www.w3.org/2000/svg" viewBox="0 0 301.78 216.13"><title>Artboard 2</title><path d="M5.51,19.48H16.92v4H0V.3H5.51Z"/><path d="M39.51.3V14c0,6.84-4.41,9.69-10.43,9.69s-10.43-2.85-10.43-9.65V.3h5.51V14.08c0,4,1.53,5.7,4.92,5.7S34,18,34,14.08V.3Z"/><path d="M57.93,7.48C57.42,5.3,55.92,4,53.25,4c-3.19,0-4.88,1.84-4.88,6.27v3.29c0,4.29,1.69,6.27,4.88,6.27,2.75,0,4.09-1.17,4.68-3.52h5.23c-.91,5.2-4.33,7.48-9.92,7.48-6.1,0-10.39-3.15-10.39-10.22V10.22C42.86,3.08,47.15,0,53.25,0c5.39,0,9.05,2.41,10,7.48Z"/><path d="M71.79,23.43H66.28V.3h5.51Z"/><path d="M93.27.3v4H81.86V10H92.09v4H81.86v9.45H76.35V.3Z"/><path d="M112.6.3v4H101.18v5.2h10.23v4H101.18v6H112.6v4H95.67V.3Z"/><path d="M130,23.43l-4.88-9.08h-4.41v9.08h-5.51V.3H125c6.26,0,10.15,2.38,10.15,7.07,0,3.12-1.69,5.16-4.64,6.2l5.63,9.86Zm-5.59-13c3.27,0,5.16-.6,5.16-3s-1.89-3.08-5.16-3.08h-3.7v6.1Z"/><path d="M156.09.3C162.5.3,166,2.25,166,6.37a5.21,5.21,0,0,1-3.58,4.93c2.79.87,4.45,2.62,4.45,5.5,0,3.59-2.75,6.64-9.92,6.64H147V.3ZM152.5,9.45h3.66c3,0,4.33-1,4.33-2.65s-.94-2.55-4.92-2.55H152.5Zm0,10h4c3.31,0,4.88-1.07,4.88-3.05,0-2.18-1.69-3-5.39-3H152.5Z"/><path d="M175.57,23.43h-5.51V.3h5.51Z"/><path d="M199.69,11.4v2.11c0,7.07-3.86,10.22-10,10.22s-10.39-3.15-10.39-10.22v-3C179.31,3.08,183.59,0,189.69,0c5.71,0,9.13,2.75,10,7.48h-5.27C193.91,5.36,192.45,4,189.69,4c-3.19,0-4.88,1.84-4.88,6.27v3.29c0,4.42,1.69,6.27,4.88,6.27s4.37-1.64,4.68-4.42h-4.57v-4Z"/><path d="M220.79.3c6.41,0,9.92,1.94,9.92,6.07a5.21,5.21,0,0,1-3.58,4.93c2.79.87,4.45,2.62,4.45,5.5,0,3.59-2.75,6.64-9.92,6.64h-10V.3Zm-3.58,9.15h3.66c3,0,4.33-1,4.33-2.65s-.94-2.55-4.92-2.55h-3.07Zm0,10h4c3.31,0,4.88-1.07,4.88-3.05,0-2.18-1.69-3-5.39-3h-3.46Z"/><path d="M231.53,23.43,241,.3h5.27l9.44,23.13h-5.86L248.18,19h-9.09l-1.65,4.39Zm9-8.35h6.14l-3.07-8.15Z"/><path d="M277.5.3V23.43h-4.6L262.31,9.12V23.43h-5.23V.3h4.57l10.63,14.52V.3Z"/><path d="M281.71,23.43V.3h9.64c6.14,0,10.43,2.68,10.43,10.06v3c0,7.34-4.29,10.06-10.43,10.06Zm14.56-10.06v-3c0-4-1.26-6.07-4.92-6.07h-4.13V19.48h4.13C295,19.48,296.27,17.37,296.27,13.38Z"/><path d="M128.7,146h-9.86v-1.42a6.72,6.72,0,0,0,1.82-.18.79.79,0,0,0,.57-.84,2.59,2.59,0,0,0-.19-.94l-1-2.47h-6.79l-.51,1.36a5.43,5.43,0,0,0-.43,1.65,1.09,1.09,0,0,0,.72,1.17,5.14,5.14,0,0,0,1.67.25V146h-7.21v-1.42a3.05,3.05,0,0,0,1.47-.32,3.26,3.26,0,0,0,1.15-1.23,16.48,16.48,0,0,0,1.18-2.55l6-15.81h1.47l6.38,16.3q.69,1.73,1,2.34a2.32,2.32,0,0,0,.9.94,3.22,3.22,0,0,0,1.61.33Zm-9.2-7.36-2.89-7.3-2.75,7.3Z"/><path d="M149.38,131h-1.47a6.14,6.14,0,0,0-.86-2.87,2.73,2.73,0,0,0-1.41-1.14,6.37,6.37,0,0,0-1.75-.22h-2.66v15.33a4.25,4.25,0,0,0,.19,1.41,1.41,1.41,0,0,0,.86.78,5.5,5.5,0,0,0,2,.28V146h-10.5v-1.42a3.75,3.75,0,0,0,2.49-.56,2.66,2.66,0,0,0,.56-1.91V126.76h-2.22a9.51,9.51,0,0,0-2.18.21,2.64,2.64,0,0,0-1.52,1.14,5.52,5.52,0,0,0-.75,2.88h-1.47V125h20.69Z"/><path d="M172.08,131h-1.47a6.14,6.14,0,0,0-.86-2.87,2.73,2.73,0,0,0-1.41-1.14,6.37,6.37,0,0,0-1.75-.22h-2.66v15.33a4.25,4.25,0,0,0,.19,1.41,1.41,1.41,0,0,0,.86.78,5.5,5.5,0,0,0,2,.28V146h-10.5v-1.42A3.75,3.75,0,0,0,159,144a2.66,2.66,0,0,0,.56-1.91V126.76h-2.22a9.51,9.51,0,0,0-2.18.21,2.64,2.64,0,0,0-1.52,1.14,5.52,5.52,0,0,0-.75,2.88h-1.47V125h20.69Z"/><path d="M197.22,135.51a11,11,0,0,1-1.36,5.35,10.13,10.13,0,0,1-4,4,12.58,12.58,0,0,1-6.29,1.5,13.26,13.26,0,0,1-5.22-1,10.12,10.12,0,0,1-3.68-2.56,10.71,10.71,0,0,1-2.12-3.52,11.31,11.31,0,0,1-.69-3.84,11.14,11.14,0,0,1,1.31-5.28,10,10,0,0,1,4-4,12.44,12.44,0,0,1,6.31-1.52,13.4,13.4,0,0,1,5.7,1.1,9.86,9.86,0,0,1,3.66,2.76,10.77,10.77,0,0,1,1.88,3.5A11.85,11.85,0,0,1,197.22,135.51Zm-5-.06a17.78,17.78,0,0,0-.3-3.33,8.76,8.76,0,0,0-1.06-2.85,5.59,5.59,0,0,0-2.07-2,6.46,6.46,0,0,0-3.24-.75,6,6,0,0,0-4.14,1.32,6.59,6.59,0,0,0-2,3.3,16.64,16.64,0,0,0-.53,4.33,22.52,22.52,0,0,0,.17,2.7,10.18,10.18,0,0,0,.82,2.88,6,6,0,0,0,2.07,2.49,6.19,6.19,0,0,0,3.67,1,5.92,5.92,0,0,0,3.63-1,6.15,6.15,0,0,0,2-2.55,10.55,10.55,0,0,0,.8-2.88A22.23,22.23,0,0,0,192.22,135.45Z"/><path d="M108.25,162.65v-1.88h25.31v1.88h-1.18q-4.08,0-5.35.67a3.56,3.56,0,0,0-1.69,2.51,52.06,52.06,0,0,0-.43,8.74v27.15a73,73,0,0,0,.31,8.55,4.35,4.35,0,0,0,1.63,3q1.33,1,5.08,1h1.63v1.88H108.25v-1.88h1.63q3.55,0,4.92-.9a4.1,4.1,0,0,0,1.74-2.8,62.63,62.63,0,0,0,.37-8.84V174.57a59.51,59.51,0,0,0-.37-8.53,3.66,3.66,0,0,0-1.63-2.65q-1.27-.73-5.47-.73Z"/><path d="M137.84,162.65v-1.88h25.31v1.88H162q-4.08,0-5.35.67a3.56,3.56,0,0,0-1.69,2.51,52.06,52.06,0,0,0-.43,8.74v27.15a73,73,0,0,0,.31,8.55,4.35,4.35,0,0,0,1.63,3q1.33,1,5.08,1h1.63v1.88H137.84v-1.88h1.63q3.55,0,4.92-.9a4.1,4.1,0,0,0,1.74-2.8,62.63,62.63,0,0,0,.37-8.84V174.57a59.51,59.51,0,0,0-.37-8.53,3.66,3.66,0,0,0-1.63-2.65q-1.27-.73-5.47-.73Z"/><path d="M167.44,162.65v-1.88h25.31v1.88h-1.18q-4.08,0-5.35.67a3.56,3.56,0,0,0-1.69,2.51,52.06,52.06,0,0,0-.43,8.74v27.15a73,73,0,0,0,.31,8.55,4.35,4.35,0,0,0,1.63,3q1.33,1,5.08,1h1.63v1.88H167.44v-1.88h1.63q3.55,0,4.92-.9a4.1,4.1,0,0,0,1.74-2.8,62.63,62.63,0,0,0,.37-8.84V174.57a59.51,59.51,0,0,0-.37-8.53,3.66,3.66,0,0,0-1.63-2.65q-1.27-.73-5.47-.73Z"/></svg>